{"title":"The Thing 2011 R5 LiNE XviD -MiSTERE","uid":6839269,"size":1225489938,"categoryP":"video","categoryS":"movies","magnet":"?xt=urn:btih:3f6786613e4450ae2686918162cb101f24c5ef84&amp;dn=The+Thing+2011+R5+LiNE+XviD+-MiSTERE&amp;tr=udp%3A%2F%2Ftracker.openbittorrent.com%3A80&amp;tr=udp%3A%2F%2Fopen.demonii.com%3A1337&amp;tr=udp%3A%2F%2Ftracker.coppersurfer.tk%3A6969&amp;tr=udp%3A%2F%2Fexodus.desync.com%3A6969","seeders":9,"leechers":0,"uploader":"LegendET","files":3,"time":1322117679,"description":"[center]\n[img]http://img198.imageshack.us/img198/5021/kegn0.jpg[/img]\n\nThe Thing 2011 R5 LiNE XviD - MiSTERE\n &lt;a href=&quot;\nhttp://www.imdb.com/title/tt0905372/&quot; rel=&quot;nofollow&quot; target=&quot;_NEW&quot;&gt;\nhttp://www.imdb.com/title/tt0905372/&lt;/a&gt;\n\nVideo\nID : 0\nFormat : MPEG-4 Visual\nFormat profile : Advanced Simple@L5\nFormat settings, BVOP : 1\nFormat settings, QPel : No\nFormat settings, GMC : No warppoints\nFormat settings, Matrix : Default (H.263)\nCodec ID : XVID\nCodec ID/Hint : XviD\nDuration : 1h 38mn\nBit rate : 1 515 Kbps\nWidth : 720 pixels\nHeight : 304 pixels\nDisplay aspect ratio : 2.35:1\nFrame rate : 25.000 fps\nColor space : YUV\nChroma subsampling : 4:2:0\nBit depth : 8 bits\nScan type : Progressive\nCompression mode : Lossy\nBits/(Pixel*Frame) : 0.277\nStream size : 1.05 GiB (92%)\nWriting library : XviD 1.2.1 (UTC 2008-12-04)\n\nAudio\nID : 1\nFormat : MPEG Audio\nFormat version : Version 1\nFormat profile : Layer 3\nMode : Joint stereo\nMode extension : MS Stereo\nCodec ID : 55\nCodec ID/Hint : MP3\nDuration : 1h 38mn\nBit rate mode : Constant\nBit rate : 128 Kbps\nChannel(s) : 2 channels\nSampling rate : 44.1 KHz\nCompression mode : Lossy\nStream size : 90.5 MiB (8%)\nAlignment : Split accross interleaves\nInterleave, duration : 40 ms (1.00 video frame)\n\n\nNot much to say here, \nvideo is nice, audio is nice\nnothing missing, BUT\nno subs for foreign language \nso enjoy or wait for retail[/center]","torrent":{"xt":"urn:btih:3f6786613e4450ae2686918162cb101f24c5ef84","amp;dn":"The+Thing+2011+R5+LiNE+XviD+-MiSTERE","amp;tr":["udp%3A%2F%2Ftracker.openbittorrent.com%3A80","udp%3A%2F%2Fopen.demonii.com%3A1337","udp%3A%2F%2Ftracker.coppersurfer.tk%3A6969","udp%3A%2F%2Fexodus.desync.com%3A6969"],"infoHash":"3f6786613e4450ae2686918162cb101f24c5ef84","infoHashBuffer":{"type":"Buffer","data":[63,103,134,97,62,68,80,174,38,134,145,129,98,203,16,31,36,197,239,132]},"announce":[],"urlList":[]}}